# xmcd CD database file
#
# Track frame offsets:
#	150
#	11693
#	24114
#	36597
#	48530
#	61057
#	73456
#	85698
#	101049
#	118195
#	132618
#	150214
#	163490
#	175834
#	188851
#	202990
#	215739
#	229108
#	241297
#	253057
#	266284
#	279510
#	294356
#	309445
#	322499
#
# Disc length: 4464 seconds
#
# Revision: 1
# Processed by: cddbd v1.4PL0 Copyright (c) Steve Scherf et al.
# Submitted via: CDex 1.51
#
DISCID=76116e19
DTITLE=Stan Getz - Stan Getz - The Sound - Long Island Sound
DYEAR=2002
DGENRE=Jazz
TTITLE0=Opus de Bebop
TTITLE1=And the Angles Swing
TTITLE2=Running Water
TTITLE3=Don't Worry 'bout Me
TTITLE4=As I Live and Bebop
TTITLE5=Interlude in Bebop
TTITLE6=Diaper Pin
TTITLE7=Battleground
TTITLE8=Four and One Moore
TTITLE9=Five Brothers
TTITLE10=Battle of the Saxes
TTITLE11=Stan Gets Along
TTITLE12=Stan's Sound
TTITLE13=Slow
TTITLE14=Fast
TTITLE15=Indian Summer
TTITLE16=Long Island Sound
TTITLE17=Mar-cia
TTITLE18=Crazy Chords
TTITLE19=There's a Small Hotel
TTITLE20=Too Marvellous for Words
TTITLE21=I"ve Got You Under My Skin
TTITLE22=What's New?
TTITLE23=You Stepped out of a Dream
TTITLE24=My Old Flame
EXTD=YEAR: 2002
EXTT0=
EXTT1=
EXTT2=
EXTT3=
EXTT4=
EXTT5=
EXTT6=
EXTT7=
EXTT8=
EXTT9=
EXTT10=
EXTT11=
EXTT12=
EXTT13=
EXTT14=
EXTT15=
EXTT16=
EXTT17=
EXTT18=
EXTT19=
EXTT20=
EXTT21=
EXTT22=
EXTT23=
EXTT24=
PLAYORDER=
